<?xml version="1.0" encoding="utf-8"?>
<!-- Generator: Adobe Illustrator 19.2.0, SVG Export Plug-In . SVG Version: 6.00 Build 0)  -->
<svg version="1.1" id="A" xmlns="http://www.w3.org/2000/svg" xmlns:xlink="http://www.w3.org/1999/xlink" x="0px" y="0px"
	 width="150" height="56" viewBox="0 0 1234.3 319.3" style="enable-background:new 0 0 1234.3 319.3;"
	 xml:space="preserve">
<style type="text/css">
	.st0{fill:#368D7B;}
	.st1{fill:#F9F9F9;}
</style>
<title>apesteefin</title>
<path class="st0" d="M0,315.5L74,96.8c0,0-2-36.6,12.5-48.4c0,0,0.4-18.1,9.8-33.5c0,0,7.6-17.2,19.4-14.7c0,0,12.3-2,23.2,12.3
	c0,0,14.5-5.6,26.5,13.8c0,0,9.1,3.6,6.2,15.6c0,0-0.5,4.5,3.8,10c0,0,19,2.7,26.3,15.2c0,0,7.6,12.5-3.3,23.9c0,0-1.3,6-26.3,11.4
	c0,0-4.9,2.4,0.2,4.5c0,0,32.1,1.1,62.7,41.9c0,0,22.1,28.3,29.7,57.8c0,0,7.6,19.2,6.5,41c0,0,0.2,26.1-11.4,41
	c0,0-6,9.8-16.7,14.5c-2.6,3.7-4.1,8-4.2,12.5h-73.4L151,268.7l-79.8-0.2l-14.5,47L0,315.5L0,315.5z"/>
<polygon class="st1" points="110.6,141.8 84.9,224.3 137,224.3 "/>
<path class="st1" d="M162.9,47.5c0,0-4.5-9.1-1.9-17.6c0,0,3.2-2.4,4.5,11.5L162.9,47.5z"/>
<path class="st0" d="M374.2,134.3c0,0,42.6-18.9,74.3,3.1c0,0,25.8,17.8,25.5,57.2c0,0,0.3,37.7-16.4,55.8c0,0-12.6,19.5-44.3,22.3
	c0,0-16.4,2.4-39.1-9.4v55.8h-42.9V182.1c0,0-4.9-0.4-2.1-8.4c0,0-5.9,8.7-15-0.7c0,0-4.5,14-17.1,1.4l-4.2-8c0,0-4.2,5.6-7,7
	l-14.7,9.1l5.6-16.8c1.5-2.5,3.7-4.4,6.3-5.6c0,0-5.9-0.7-5.2-7.7c0,0-0.4-15,6.3-23.4c0,0,31.1-14,41.9-16.1c0,0,7.3-1.7,30,13.3
	C356.1,126.3,372.5,133.3,374.2,134.3z"/>
<path class="st1" d="M374.6,173.1c0,0,16.1-11.2,36.3-9.4c0,0,13.6,2.8,17.5,25.8c0,0,0.7,27.5-3.6,33.7c0,0-1.8,9.8-20.6,17.1
	c0,0-9.2,1.1-28.5-2L374.6,173.1z"/>
<path class="st0" d="M640.5,208.7c0,0,3.8-41.7-13-59.1c0,0-13.6-19-44.6-21.2c-17.5-1.6-35.2,1.3-51.2,8.5c0,0-27.2,12.6-33.8,45.2
	c0,0-6.6,20.2,3.5,52.5c0,0,13.6,29.1,51.5,36.3c0,0,28.1,10.7,84.7-7.9v-36.3h-5.1c0,0-7.9,13.6-50.2,15.8c0,0-23.1,1.9-37.6-16.4
	c0,0-5.1-7.9-4.4-16.4L640.5,208.7z"/>
<path class="st1" d="M596.6,183.7c0,0,1.9-17.9-13-25.5c0,0-16.8-6-30.3,2.2c0,0-11.1,3.3-13,23.3H596.6L596.6,183.7z"/>
<path class="st0" d="M1233.9,208.7c0,0,3.8-41.7-13-59.1c0,0-13.6-19-44.6-21.2c-17.5-1.6-35.2,1.3-51.2,8.5
	c0,0-27.2,12.6-33.8,45.2c0,0-6.6,20.2,3.5,52.5c0,0,13.6,29.1,51.5,36.3c0,0,28.1,10.7,84.7-7.9v-36.3h-5.1c0,0-7.9,13.6-50.2,15.8
	c0,0-23.1,1.9-37.6-16.4c0,0-5.1-7.9-4.4-16.4L1233.9,208.7z"/>
<path class="st1" d="M1190,183.7c0,0,1.9-17.9-13-25.5c0,0-16.8-6-30.3,2.2c0,0-11.1,3.3-13,23.3H1190L1190,183.7z"/>
<path class="st0" d="M1070,208.7c0,0,3.8-41.7-13-59.1c0,0-13.6-19-44.6-21.2c-17.5-1.6-35.2,1.3-51.2,8.5c0,0-27.2,12.6-33.8,45.2
	c0,0-6.6,20.2,3.5,52.5c0,0,13.6,29.1,51.5,36.3c0,0,28.1,10.7,84.7-7.9v-36.3h-5.1c0,0-7.9,13.6-50.2,15.8c0,0-23.1,1.9-37.6-16.4
	c0,0-5.1-7.9-4.4-16.4L1070,208.7z"/>
<path class="st1" d="M1026.1,183.7c0,0,1.9-17.9-13-25.5c0,0-16.8-6-30.3,2.2c0,0-11.1,3.3-13,23.3H1026.1L1026.1,183.7z"/>
<path class="st0" d="M784,173.3v-35.1c0,0-40.1-14.2-75.8-7c0,0-20.9,3.6-36,20c0,0-17.1,18.6-2.8,46.4c0,0,8.8,17.7,58.5,24
	c0,0,20.5,0.9,18.3,12.3c0,0,1.9,9.2-22.3,10.1s-50.1-10.4-58-17.7l-2.2,0.3v35.4c0,0,17,10.3,54.6,11.9c0,0,40.4,1.2,61.7-19.8
	c6-6.6,9.8-15,10.9-23.9c0,0,1.3-15.2-3.7-21.7c0,0-6.3-17.9-45.5-23.9c0,0-32-1.3-32.8-10.9c0,0-8.9-14.7,25.5-15.5
	c0,0,30.6,1.5,46.1,14.9L784,173.3z"/>
<path class="st0" d="M823.4,93.2H866v38.6h40.8v31h-40.1v60.5c0,0-2,16.9,14.9,19.1c0,0,9.9,2,25.2-4.3v30.5c0,0-1.2,3.1-40.4,4
	c0,0-18.3-2-26-6.9c0,0-13.6-6-17.1-26.8v-76l-18.6-0.6V133l17.7-0.3L823.4,93.2z"/>
<path class="st0" d="M319.8,111.8l22.1-27.2c0,0,1.1-2,5.1-1.1l9,5.1c0,0,1.1,2.2-1.5,4.2c0,0,1.3,0.9,0.2,4.7
	c0,1.7-0.5,3.4-1.5,4.8l-9.7,12.1c0,0-3.3,1-3.1-1.5l9.5-14c0,0,1.1-3.7-2-1.7l-11,15.7c0,0-5.7-3.1-15-1.1L319.8,111.8L319.8,111.8
	z"/>
</svg>
